<?xml version="1.0" encoding="UTF-8" standalone="no"?>
<!-- Created with Inkscape (http://www.inkscape.org/) -->
<svg xmlns:dc="http://purl.org/dc/elements/1.1/" xmlns:cc="http://creativecommons.org/ns#" xmlns:rdf="http://www.w3.org/1999/02/22-rdf-syntax-ns#" xmlns:svg="http://www.w3.org/2000/svg" xmlns="http://www.w3.org/2000/svg" xmlns:xlink="http://www.w3.org/1999/xlink" xmlns:sodipodi="http://sodipodi.sourceforge.net/DTD/sodipodi-0.dtd" xmlns:inkscape="http://www.inkscape.org/namespaces/inkscape" width="660.02209" height="600.0871" id="svg3728" sodipodi:version="0.32" inkscape:version="0.45+devel+devel" version="1.0" sodipodi:docname="Logo_lorraine.svg" inkscape:output_extension="org.inkscape.output.svg.inkscape">
  <defs id="defs3730">
    <linearGradient id="linearGradient2893">
      <stop id="stop2895" offset="0" style="stop-color:white;stop-opacity:0.3137255;"/>
      <stop style="stop-color:white;stop-opacity:0.25098041;" offset="0.19" id="stop2897"/>
      <stop id="stop2901" offset="0.60000002" style="stop-color:#ebb104;stop-opacity:0.1254902;"/>
      <stop id="stop2899" offset="1" style="stop-color:#fb6200;stop-opacity:0.3137255;"/>
    </linearGradient>
    <clipPath id="SVGID_2_">
		<use xlink:href="#SVGID_1_" overflow="visible" id="use57" style="overflow:visible" x="0" y="0" width="79.480003" height="20.65"/>

	</clipPath>
    <radialGradient inkscape:collect="always" xlink:href="#linearGradient2893" id="radialGradient3766" gradientUnits="userSpaceOnUse" gradientTransform="matrix(0.1622934,2.1561719,-2.6448451,0.1922813,-1950.3845,-2593.291)" cx="71.881668" cy="371.72446" fx="71.881668" fy="371.72446" r="300"/>
  </defs>
  <sodipodi:namedview id="base" pagecolor="#ffffff" bordercolor="#666666" borderopacity="1.0" inkscape:pageopacity="0.0" inkscape:pageshadow="2" inkscape:zoom="0.35" inkscape:cx="-215" inkscape:cy="267.75922" inkscape:document-units="px" inkscape:current-layer="layer1" showgrid="false" inkscape:window-width="1280" inkscape:window-height="971" inkscape:window-x="-4" inkscape:window-y="-4"/>
  <metadata id="metadata3733">
    <rdf:RDF>
      <cc:Work rdf:about="">
        <dc:format>image/svg+xml</dc:format>
        <dc:type rdf:resource="http://purl.org/dc/dcmitype/StillImage"/>
        <dc:title>Logo de la Lorraine</dc:title>
        <dc:date>2008 FEB 21</dc:date>
        <dc:creator>
          <cc:Agent>
            <dc:title>Jean-Bernard FRANCOIS (infofiltrage)</dc:title>
          </cc:Agent>
        </dc:creator>
        <dc:rights>
          <cc:Agent>
            <dc:title>Fair Use</dc:title>
          </cc:Agent>
        </dc:rights>
        <dc:publisher>
          <cc:Agent>
            <dc:title>Conseil Régional de Lorraine</dc:title>
          </cc:Agent>
        </dc:publisher>
        <dc:source>Charlélie Couture</dc:source>
        <dc:language>fr</dc:language>
        <dc:subject>
          <rdf:Bag>
            <rdf:li>Logo de la Lorraine Charlélie Couture</rdf:li>
          </rdf:Bag>
        </dc:subject>
        <dc:description>D'or aux trois ailerons de gueules et d'azur stylisés</dc:description>
        <dc:contributor>
          <cc:Agent>
            <dc:title>Charlélie Couture</dc:title>
          </cc:Agent>
        </dc:contributor>
      </cc:Work>
    </rdf:RDF>
  </metadata>
  <g inkscape:label="Calque 1" inkscape:groupmode="layer" id="layer1" transform="translate(2896.8763,2392.0683)">
    <g id="g4544">
      <g transform="matrix(16.269516,0,0,15.989483,-2349.2536,-2278.6652)" id="g2422">
        <path d="M 5.4853562,2.3139947 C 5.7907544,1.4038676 5.7563719,0.36834523 6.1001973,-0.52357928 C 5.9141269,-2.7159744 6.5714412,-4.8052218 6.7918943,-6.9531218 C 6.4925631,-7.0542471 6.371213,-6.7427814 6.0718818,-6.845929 C 4.8927622,-6.1218724 3.5680217,-6.4737882 2.2958661,-5.9620946 C 0.85584258,-6.6032285 -0.29698521,-5.0458999 -1.8442011,-5.1611827 C -2.9929842,-5.2036553 -4.2125547,-6.1845701 -5.2784137,-5.2784879 C -8.4132964,-6.3018753 -12.011332,-5.0155623 -15.297903,-5.090395 C -15.882406,-5.4402883 -16.743994,-5.1065751 -17.381082,-5.3209605 C -19.799998,-4.7870192 -22.269476,-5.0034273 -24.781427,-5.090395 C -25.640992,-5.6809664 -26.650222,-5.066125 -27.578551,-5.0378099 C -29.083295,-5.731529 -30.800401,-5.8629918 -32.475035,-6.1178273 C -31.999746,-4.3764508 -32.26874,-2.3033835 -31.200857,-0.81482002 C -30.818604,0.3036251 -31.47794,1.2986974 -31.930981,2.3139947 C -32.042219,2.5708529 -32.143344,2.8256885 -32.210087,3.0865915 C -32.420427,3.9926736 -32.088737,4.7733611 -32.434585,5.622813 C -32.828973,6.3043969 -31.896599,7.2610412 -32.938189,7.6149797 C -32.847176,9.1035435 -30.768041,9.7224294 -31.241307,11.465829 C -31.225127,11.506278 -31.21097,11.544706 -31.196812,11.581112 C -30.41208,13.842272 -32.280875,15.692864 -32.837064,17.727504 C -32.889649,18.35448 -32.665151,18.744823 -32.988751,19.266629 C -33.56921,19.770233 -33.621795,20.310242 -33.470107,20.848228 C -33.296172,21.475205 -32.853243,22.10218 -32.653016,22.69073 C -32.719758,24.931665 -32.058399,26.968327 -31.902666,28.9969 C -30.610286,28.558016 -29.218803,29.019147 -28.025525,28.564083 C -26.640109,27.399121 -24.858282,28.60251 -23.242301,28.564083 C -22.330151,27.508336 -21.260246,28.301158 -20.087194,28.234415 C -18.942456,27.146308 -17.097932,27.662046 -15.775214,26.97844 C -14.151142,27.488111 -12.254032,27.029003 -10.62794,26.970349 C -9.1211734,26.923833 -8.0108176,28.402284 -6.5465245,27.977558 C -6.3968589,27.829914 -6.2653971,27.619574 -6.0105615,27.694406 C -5.2500995,29.197127 -3.49052,27.712609 -2.3801654,28.529701 C -1.12419,29.526796 0.87202268,28.612624 1.9783325,29.983882 C 2.87228,29.902981 3.6570116,30.673555 4.5125305,30.113321 C 4.4215183,29.195104 4.1606157,28.315315 4.8260195,27.579123 C 6.8990866,26.511241 3.7176873,25.77505 3.5922912,24.444241 C 4.3992711,23.730297 5.0505172,22.818148 5.2568125,21.788693 C 5.0545619,21.491384 4.9372565,21.171829 4.8644467,20.844183 C 4.6359043,19.810682 4.850289,18.688193 4.1889299,17.745706 C 3.4304915,16.469506 5.4165911,16.28748 5.4024333,15.195328 C 5.5905262,13.991937 5.4752431,12.750118 5.1738896,11.577066 C 4.9777074,10.826717 4.7066917,10.10266 4.3911805,9.4352336 C 3.8774646,7.5300345 5.7058092,5.8877604 5.0100676,3.913796 C 5.34378,3.5012051 5.390298,2.9854663 5.4347935,2.4616376 C 5.452996,2.41512 5.4711984,2.3645574 5.4853562,2.3139947" id="path49" style="fill:#ffc608"/>
        <g id="g51" transform="matrix(2.0225048,0,0,2.0225048,-34.410572,-9.2527096)">
	<defs id="defs53">
  <rect id="SVGID_1_" width="79.480003" height="20.65" x="0" y="0"/>
</defs>

	<clipPath id="clipPath3752">
		<use xlink:href="#SVGID_1_" overflow="visible" id="use3754" style="overflow:visible" x="0" y="0" width="79.480003" height="20.65"/>

	</clipPath>

	<path clip-path="url(#SVGID_2_)" d="M 19.726,5.719 C 19.877,5.269 19.86,4.757 20.03,4.316 C 19.938,3.232 20.263,2.199 20.372,1.137 C 20.224,1.087 20.164,1.241 20.016,1.19 C 19.433,1.548 18.778,1.374 18.149,1.627 C 17.437,1.31 16.867,2.08 16.102,2.023 C 15.534,2.002 14.931,1.517 14.404,1.965 C 12.854,1.459 11.075,2.095 9.45,2.058 C 9.161,1.885 8.735,2.05 8.42,1.944 C 7.224,2.208 6.003,2.101 4.761,2.058 C 4.336,1.766 3.837,2.07 3.378,2.084 C 2.634,1.741 1.785,1.676 0.957,1.55 C 1.192,2.411 1.059,3.436 1.587,4.172 C 1.776,4.725 1.45,5.217 1.226,5.719 C 1.171,5.846 1.121,5.972 1.088,6.101 C 0.984,6.549 1.148,6.935 0.977,7.355 C 0.782,7.692 1.243,8.165 0.728,8.34 C 0.773,9.076 1.801,9.382 1.567,10.244 C 1.575,10.264 1.582,10.283 1.589,10.301 C 1.977,11.419 1.053,12.334 0.778,13.34 C 0.752,13.65 0.863,13.843 0.703,14.101 C 0.416,14.35 0.39,14.617 0.465,14.883 C 0.551,15.193 0.77,15.503 0.869,15.794 C 0.836,16.902 1.163,17.909 1.24,18.912 C 1.879,18.695 2.567,18.923 3.157,18.698 C 3.842,18.122 4.723,18.717 5.522,18.698 C 5.973,18.176 6.502,18.568 7.082,18.535 C 7.648,17.997 8.56,18.252 9.214,17.914 C 10.017,18.166 10.955,17.939 11.759,17.91 C 12.504,17.887 13.053,18.618 13.777,18.408 C 13.851,18.335 13.916,18.231 14.042,18.268 C 14.418,19.011 15.288,18.277 15.837,18.681 C 16.458,19.174 17.445,18.722 17.992,19.4 C 18.434,19.36 18.822,19.741 19.245,19.464 C 19.2,19.01 19.071,18.575 19.4,18.211 C 20.425,17.683 18.852,17.319 18.79,16.661 C 19.189,16.308 19.511,15.857 19.613,15.348 C 19.513,15.201 19.455,15.043 19.419,14.881 C 19.306,14.37 19.412,13.815 19.085,13.349 C 18.71,12.718 19.692,12.628 19.685,12.088 C 19.778,11.493 19.721,10.879 19.572,10.299 C 19.475,9.928 19.341,9.57 19.185,9.24 C 18.931,8.298 19.835,7.486 19.491,6.51 C 19.656,6.306 19.679,6.051 19.701,5.792 C 19.71,5.769 19.719,5.744 19.726,5.719" id="path59" style="fill:none;stroke:#ffffff;stroke-width:0.11640389"/>

</g>
        <polyline points="7.402,7.098 7.33,7.992 11.746,11.325 11.928,12.68 12.27,14.239 13.228,15.337 13.305,13.505   13.222,11.453 13.345,9.754 8.741,7.028 7.402,7.098 " id="polyline61" transform="matrix(2.0225048,0,0,2.0225048,-34.410572,-9.2527096)" style="fill:#ffffff"/>
        <polyline points="12.708,5.524 10.792,4.578 13.542,3.589 15.628,5.269 16.718,6.274 17.216,6.6 17.548,10.032   15.836,11.582 15.724,9.173 16.287,7.086 12.708,5.524 " id="polyline63" transform="matrix(2.0225048,0,0,2.0225048,-34.410572,-9.2527096)" style="fill:#ffffff"/>
        <polyline points="5.501,17.537 6.085,13.039 2.498,11.052 3.444,10.298 7.673,12.004 7.716,15.464 6.601,16.668   5.501,17.537 " id="polyline65" transform="matrix(2.0225048,0,0,2.0225048,-34.410572,-9.2527096)" style="fill:#ffffff"/>
        <path d="M -7.4364273,4.694483 L -10.239619,-0.22020367 C -10.239619,-0.22020367 -5.379539,-1.0797681 -0.93811949,-0.21615858 L 0.50999476,9.5120894 L -0.25855796,11.783362 L -2.2143197,13.443838 L -4.4451419,10.056143 L -2.6370233,5.5055076 L -7.4364273,4.694483" id="path67" style="fill:#e01737"/>
        <polyline points="6.466,7.205 12.851,9.54 13.564,14.215 11.383,12.202 11.046,10.958 9.813,10.625 6.298,7.744   6.466,7.205 " id="polyline69" transform="matrix(2.0225048,0,0,2.0225048,-34.410572,-9.2527096)" style="fill:#e01737"/>
        <polyline points="2.168,11.305 2.384,11.026 5.149,11.026 7.745,13.432 9.445,15.989 6.511,16.67 6.372,14.038   2.168,11.305 " id="polyline71" transform="matrix(2.0225048,0,0,2.0225048,-34.410572,-9.2527096)" style="fill:#e01737"/>
        <path d="M -20.831476,17.500982 L -20.758665,17.553567 L -20.582707,17.280529 L -20.655517,17.227944 L -20.831476,17.500982 M -20.702035,17.007491 L -22.307904,18.206837 L -22.356444,17.980317 C -22.384759,17.899416 -22.315994,17.852898 -22.271499,17.800313 C -22.779148,18.142116 -23.517362,18.309984 -23.786355,18.819656 C -23.539609,18.995613 -23.369719,19.365732 -23.054208,19.349552 C -21.998461,18.439425 -21.209684,17.648625 -20.702035,17.007491 z M -18.879759,15.656459 C -19.2519,15.688819 -19.292349,15.838483 -19.504713,16.073094 C -19.61595,16.196468 -19.872808,16.40883 -20.038654,16.491753 L -19.11437,17.646603 C -18.467167,20.334511 -21.709243,22.61792 -19.694828,25.063128 C -18.891893,22.656347 -16.841074,20.73699 -15.848024,18.398974 L -15.593188,17.488848 C -16.135219,16.534225 -17.29816,17.181427 -17.959519,16.540293 L -18.879759,15.656459 z M -17.27389,14.724084 L -16.650958,13.635977 L -17.502433,14.457113 L -17.27389,14.724084 z M -16.907817,13.676426 L -17.781538,13.969689 L -17.641986,14.190142 C -17.441758,14.2852 -16.800623,13.664291 -16.907817,13.676426 z M -19.927415,12.788547 C -22.965218,11.659989 -25.505484,13.751258 -28.11047,14.659364 C -26.346846,14.734196 -24.168608,14.313516 -22.506109,14.912177 C -21.75576,14.980942 -20.989231,16.113545 -20.271242,16.285458 C -20.277309,16.285458 -19.369205,15.878934 -19.156841,15.39151 C -19.264034,14.491496 -18.966726,13.411478 -19.47842,12.689444 L -19.927415,12.788547 z M -15.534536,13.427658 L -13.184385,11.12807 C -14.104624,11.639764 -15.132057,12.337528 -15.856114,13.116192 L -15.534536,13.427658 z M -16.32129,12.448766 L -15.995667,12.938213 C -15.075428,11.965387 -13.876082,11.364704 -12.832469,10.664917 C -14.033837,11.16852 -15.243296,11.659989 -16.32129,12.448766 z M -10.603669,9.1803981 L -11.667507,10.193673 C -9.7521947,12.693489 -10.182988,16.21467 -8.2555414,18.708419 C -8.352622,16.083207 -6.9429363,14.038454 -6.4939395,11.629651 C -6.4514676,11.053238 -6.9510257,10.881324 -7.3272113,10.563792 C -8.6418401,10.679074 -9.8330952,10.258394 -10.603669,9.1803981 z M -9.1737584,8.3855535 L -8.5528489,7.4309316 L -9.4023009,8.2540916 L -9.1737584,8.3855535 z M -19.239764,6.2720367 C -16.646913,7.1275557 -13.908442,7.8071172 -11.8556,9.8377124 C -11.461212,9.657709 -11.105251,9.3786039 -10.787717,9.0044406 C -11.260983,7.8576799 -11.169971,6.4661966 -11.847509,5.4124718 C -14.1653,4.217172 -17.114112,5.827086 -19.239764,6.2720367 z M -4.6655949,4.1281815 L -7.760028,6.7776632 C -7.7984552,7.070926 -7.4526074,7.1963208 -7.2968735,7.4026161 C -6.4211297,6.4277694 -5.2278511,5.0423531 -4.6655949,4.1281815 z M -4.7727885,3.893571 C -6.0004485,4.3931295 -7.4162012,5.4529226 -8.457792,6.1911362 C -8.3020593,6.3084416 -8.1341913,6.5774349 -7.8975582,6.692718 L -4.7727885,3.893571 z M -2.3336475,2.2512971 C -2.9950066,2.5304028 -3.2013018,2.9146786 -3.5815322,3.2706395 C -0.69137333,5.6369695 -3.0536586,9.6172594 -0.97047969,12.33955 C -0.74800431,9.7891721 0.83764013,7.7808254 1.3331535,5.3416843 C 1.4767521,4.7248208 1.6668672,3.8005357 0.93269708,3.2281669 C -0.19788227,3.1149066 -1.4700378,2.6416405 -2.3336475,2.2512971 z M -0.9057593,1.5009478 L -0.64687902,0.68587846 L -1.2718319,1.2380222 L -0.9057593,1.5009478 z M -1.6439729,0.70205856 C -1.6419505,0.80116124 -1.5226228,1.0539743 -1.4134081,1.1065595 C -1.2253153,1.0135242 -0.92800645,0.75666616 -0.78643156,0.55441571 C -1.0311541,0.4977855 -1.4174528,0.71621605 -1.6439729,0.70205856 z M -4.9507683,-2.305406 C -7.3130536,-1.6460695 -9.3173557,-0.16964103 -11.859644,0.085194549 C -10.314451,0.55037062 -8.5467819,0.47351548 -7.0541733,1.0782444 C -6.0146062,1.1470096 -4.8395313,2.7973734 -3.8646833,3.0340064 C -3.6240054,3.0946816 -3.6624327,2.8984987 -3.4278219,2.7508558 C -3.1972571,2.6072579 -2.8332056,2.4232101 -2.6107302,1.986349 C -3.6401855,1.0479068 -3.721086,-0.29705882 -3.6745681,-1.6946095 C -3.6705234,-2.3923736 -4.4370525,-2.3418111 -4.9507683,-2.305406 z M -2.4327504,1.8912912 C -2.15769,1.7052209 -1.8624036,1.537353 -1.6338611,1.2461123 C -1.7006039,1.0034117 -1.8462235,0.86183641 -2.0929696,0.80116124 C -1.874539,0.3744128 -1.1039652,0.50587555 -0.65699078,0.23485987 L -0.38799746,0.22879243 L -0.80867871,1.8629763 C -1.1363241,1.6890408 -1.5812761,1.092402 -1.8947638,1.7031983 L -2.1597124,1.9782589 C -1.1707066,3.2888421 1.7052945,2.0227541 1.676979,4.3425668 C 1.3210181,7.0507012 -0.26058031,9.384671 -0.61654118,11.973478 C -0.88148851,12.25056 -0.62867657,12.723827 -0.96036665,12.972595 C -3.1325367,10.294799 -0.8733991,5.6086553 -3.8505255,3.3656972 C -4.4370525,3.8915485 -3.7332201,4.3729047 -3.820189,4.9897681 C -4.0285066,5.8068599 -4.0022135,6.7999103 -4.6777303,7.3540771 C -5.0094217,7.55835 -5.4563948,7.7565546 -5.8487605,7.5563264 C -6.0489888,7.4046397 -5.8406711,7.0749707 -6.0408981,6.9273275 C -5.8710077,6.8322705 -5.7213434,6.7230545 -5.5029127,6.7351899 L -5.4988667,6.9172157 C -5.5797672,6.9455299 -5.6262852,6.8747425 -5.6808925,6.8302482 C -5.8406711,6.9414852 -5.8831431,7.0951955 -5.8528052,7.2832883 C -5.6849372,7.5785748 -5.2541442,7.4713812 -5.0397582,7.3581218 C -4.0568208,6.7088981 -4.1963746,5.6288801 -4.0972717,4.6317849 L -4.2833422,4.364814 C -4.4046923,5.0706686 -4.8112158,5.6571956 -5.1509966,6.2760814 C -5.2865044,5.7360724 -4.5948075,5.0383084 -4.6433477,4.4618945 L -7.2038389,7.5805971 C -7.6872169,7.7080143 -7.6548567,7.1275557 -8.0269977,6.96171 C -8.5568949,7.4976743 -8.8339777,8.1327403 -9.0766778,8.7880323 C -9.3072439,8.4057796 -9.6814072,8.2581363 -10.073773,8.6262326 L -10.425689,8.9963499 C -9.7360146,11.148295 -6.8539451,9.3057941 -6.3159597,11.447626 C -6.6294474,14.000027 -8.0350884,16.127701 -8.0735156,18.795386 C -8.1827316,18.852016 -8.1604832,18.969321 -8.1584608,19.068424 C -10.409509,16.617148 -9.7784878,12.758209 -11.940545,10.19974 C -12.719209,10.529409 -11.877847,11.055261 -12.003243,11.554819 C -12.001221,12.574161 -12.183245,13.526761 -12.85674,14.279133 C -13.299668,14.576441 -13.758776,14.865659 -14.381708,14.760489 C -14.412046,14.578463 -14.721489,14.404528 -14.482834,14.218458 C -14.288672,13.973735 -14.047995,13.815979 -13.768889,13.755304 L -13.677876,13.842272 C -14.01159,13.824069 -14.185525,14.19621 -14.385753,14.489473 L -14.385753,14.578463 C -13.855857,14.786781 -13.386635,14.353965 -12.949774,14.09913 C -12.207516,13.247656 -12.021445,12.068535 -12.286393,10.927842 L -12.472463,10.749862 L -13.505963,13.300241 C -13.663718,12.588319 -12.919438,11.898644 -13.002359,11.215038 C -13.861924,12.104939 -14.950031,12.82293 -15.572963,13.882721 C -15.811619,13.684517 -15.819708,13.227431 -16.21612,13.257767 C -16.618599,13.87261 -17.085797,14.467226 -17.263778,15.177124 C -17.257709,15.005211 -17.722886,14.246773 -17.995924,14.738242 C -18.232557,15.013302 -18.871668,15.160945 -18.701778,15.563423 C -18.220422,16.522091 -17.219282,16.536248 -16.420393,16.874006 C -15.591166,16.162084 -15.607346,17.310867 -15.140147,17.660761 L -15.128013,18.293804 C -17.047369,19.93001 -17.389173,22.346904 -19.079987,24.146933 C -19.262011,24.541321 -19.217517,25.018632 -19.59977,25.332121 C -20.240904,24.937733 -20.613045,24.260194 -20.718215,23.54625 C -20.594843,21.440821 -18.936388,19.828886 -19.294372,17.650648 C -19.54314,17.383677 -19.64831,16.979177 -20.030564,16.851758 C -19.897079,18.158297 -20.724282,19.402137 -21.680927,20.314287 C -21.935763,20.292039 -22.144081,20.178779 -22.320039,19.964394 C -22.445434,19.634725 -22.166329,19.446632 -21.974191,19.236292 C -21.794188,19.161459 -21.654635,19.347529 -21.608117,19.410227 C -21.79621,19.5336 -22.212846,19.511353 -22.140036,19.87338 C -21.990371,20.231364 -21.6425,19.972483 -21.511037,19.770233 C -20.847656,19.027973 -20.26922,18.129981 -20.293489,17.217832 C -20.801138,17.672895 -20.940691,18.423245 -21.533285,18.688193 C -21.458452,18.241219 -20.69799,17.911552 -20.831476,17.49896 C -21.468564,18.214926 -22.400939,19.009771 -23.046118,19.709557 L -24.150406,18.647743 C -23.304999,18.010653 -22.307904,17.709301 -21.472609,17.0621 C -21.923628,17.051987 -22.609257,17.056031 -22.999601,17.45042 L -23.090613,17.363452 C -22.421164,16.971086 -21.474632,16.853781 -20.667652,16.594901 C -21.49688,16.176242 -22.771057,16.299615 -23.648825,16.558496 C -23.950178,16.799173 -24.291981,16.940748 -24.265689,17.383677 C -24.109956,17.525253 -23.96838,17.729526 -23.719612,17.642558 L -23.452642,17.367498 L -23.727702,17.102549 L -23.640735,17.011537 C -23.412192,17.114685 -23.460732,17.349294 -23.448597,17.549522 C -23.753995,17.697166 -23.9522,17.70121 -24.261643,17.56368 C -24.550862,17.460533 -24.478052,17.090414 -24.364791,16.932659 C -23.302976,16.263209 -21.78003,16.141859 -20.582707,16.31984 C -22.564762,14.18812 -25.899872,14.928357 -28.468453,14.843412 C -28.20755,14.232615 -27.396526,14.16385 -26.862585,13.820025 C -24.528614,13.035292 -22.249251,11.348523 -19.484487,12.325393 C -18.855488,13.027202 -19.158864,14.307447 -18.798858,15.203417 C -18.430762,15.041616 -18.101094,14.813074 -17.817943,14.461158 L -18.190084,13.929239 C -17.575243,13.484289 -16.677251,13.674404 -16.129152,13.077765 L -16.68534,12.365843 L -13.463491,10.721547 C -14.104624,10.697277 -15.04509,11.176611 -15.708471,11.35459 C -14.881266,10.74784 -13.692034,10.620422 -12.660556,10.300866 C -13.152025,9.5161341 -14.248223,9.872095 -15.107788,9.8033299 C -15.817686,10.009625 -16.576126,10.454576 -16.887591,11.194813 C -16.768263,11.283803 -16.683318,11.471896 -16.521518,11.45976 C -16.234322,11.342456 -16.41028,11.059305 -16.529608,11.00672 L -16.347583,11.002676 L -16.341515,11.455716 L -16.881524,11.465829 C -17.219282,10.80447 -16.418371,10.201763 -15.918811,9.9125446 C -14.897446,9.4675938 -13.362366,9.4332113 -12.480554,10.209853 C -12.290439,10.232101 -12.136727,10.185583 -12.033579,10.019738 C -13.093373,8.3329685 -15.099697,8.2722941 -16.598373,7.3075591 C -17.662211,6.9839585 -19.025378,7.0264304 -19.692806,6.0981016 C -17.053436,5.7158476 -14.503058,3.5800827 -11.76661,4.957408 C -11.006148,6.0455154 -11.184128,7.554304 -10.61176,8.7273566 C -10.219394,8.9457873 -9.9605123,8.3552169 -9.6288222,8.1671228 C -9.7218568,8.0154361 -10.002986,7.9507158 -9.9099497,7.7201497 C -9.376009,7.3055368 -8.5953222,7.4248645 -8.1180112,6.8727201 C -8.3384642,6.6785602 -8.4254318,6.4277694 -8.6742003,6.2518119 C -7.812613,5.3153912 -6.5950648,4.8320132 -5.551453,4.1160465 C -6.1238209,3.9461561 -6.6294474,4.4517828 -7.2604686,4.4174002 C -6.6577629,3.9461561 -5.4159452,4.0048086 -4.8617784,3.5881727 C -5.9519082,3.3292921 -7.5840693,3.6306453 -8.4355435,4.4416697 C -8.4861062,4.7126854 -8.3627338,4.9068453 -8.1523938,5.0686463 C -8.0735156,4.8866205 -7.755982,5.0605556 -7.7964329,4.7895399 L -7.9825034,4.6135825 L -7.8935135,4.5225702 C -7.6932853,4.5630198 -7.4991241,4.8744851 -7.7013747,5.0605556 C -7.8510402,5.2243789 -8.1261006,5.1313443 -8.3303736,5.1616809 C -8.615547,4.977634 -8.793528,4.6277402 -8.6175693,4.3567246 C -7.5274396,3.2787296 -5.6283075,2.9086112 -4.1215412,3.3677197 L -4.0325513,3.2767069 C -6.255284,0.88610643 -9.6369116,1.0701543 -12.490666,0.095307078 L -12.494712,-0.084695835 C -9.4589318,0.00024935674 -7.3858647,-2.1152905 -4.5948075,-2.5824891 C -2.420615,-2.2083258 -4.3399719,0.9184665 -2.4327504,1.8912912 z" id="path73" style="fill:#034ea1"/>
      </g>
      <path style="fill:url(#radialGradient3766);fill-opacity:1;fill-rule:evenodd;stroke:none;stroke-width:1px;stroke-linecap:butt;stroke-linejoin:miter;marker:none;marker-start:none;marker-mid:none;marker-end:none;stroke-miterlimit:4;stroke-dasharray:none;stroke-dashoffset:0;stroke-opacity:1;visibility:visible;display:inline;overflow:visible;enable-background:accumulate;opacity:0.50000000000000000;" id="path2869" d="M -2260.0095,-2241.6656 C -2255.0409,-2256.2181 -2255.6002,-2272.7755 -2250.0064,-2287.0369 C -2253.0336,-2322.0922 -2242.3395,-2355.4982 -2238.7528,-2389.842 C -2243.6228,-2391.459 -2245.5971,-2386.4788 -2250.4671,-2388.1281 C -2269.6508,-2376.5508 -2291.2036,-2382.1777 -2311.901,-2373.996 C -2335.3295,-2384.2474 -2354.0854,-2359.3465 -2379.2579,-2361.1898 C -2397.948,-2361.8689 -2417.7899,-2377.5533 -2435.1309,-2363.0655 C -2486.1339,-2379.4289 -2544.6722,-2358.8614 -2598.1431,-2360.058 C -2607.6527,-2365.6526 -2621.6703,-2360.3167 -2632.0354,-2363.7446 C -2671.39,-2355.2071 -2711.5672,-2358.6674 -2752.4354,-2360.058 C -2766.4201,-2369.5009 -2782.8398,-2359.6699 -2797.9433,-2359.2172 C -2822.4247,-2370.3094 -2850.3613,-2372.4114 -2877.6067,-2376.4861 C -2869.874,-2348.6424 -2874.2504,-2315.4951 -2856.8765,-2291.6937 C -2850.6574,-2273.8104 -2861.3844,-2257.8997 -2868.7552,-2241.6656 C -2870.565,-2237.5586 -2872.2103,-2233.4839 -2873.2962,-2229.3122 C -2876.7183,-2214.8244 -2871.3219,-2202.3416 -2876.9486,-2188.7593 C -2883.3651,-2177.8611 -2868.1959,-2162.5649 -2885.142,-2156.9056 C -2883.6612,-2133.1042 -2849.8348,-2123.2086 -2857.5346,-2095.3325 C -2857.2713,-2094.6857 -2857.041,-2094.0713 -2856.8106,-2093.4892 C -2844.0435,-2057.3344 -2874.4478,-2027.7444 -2883.4968,-1995.2116 C -2884.3523,-1985.1865 -2880.6998,-1978.9452 -2885.9646,-1970.6018 C -2895.4084,-1962.5494 -2896.264,-1953.9149 -2893.7961,-1945.3128 C -2890.9663,-1935.2878 -2883.76,-1925.2628 -2880.5024,-1915.8521 C -2881.5883,-1880.0208 -2870.8283,-1847.4556 -2868.2945,-1815.0197 C -2847.2682,-1822.0373 -2824.6294,-1814.664 -2805.2154,-1821.9403 C -2782.6753,-1840.5674 -2753.6858,-1821.3258 -2727.3946,-1821.9403 C -2712.5544,-1838.8211 -2695.1475,-1826.1443 -2676.0625,-1827.2115 C -2657.4382,-1844.6098 -2627.4287,-1836.3634 -2605.9087,-1847.2939 C -2579.4859,-1839.1445 -2548.6208,-1846.4854 -2522.1651,-1847.4233 C -2497.6507,-1848.167 -2479.5858,-1824.5274 -2455.7624,-1831.3185 C -2453.3274,-1833.6792 -2451.1886,-1837.0425 -2447.0426,-1835.8459 C -2434.6702,-1811.8182 -2406.0427,-1835.5549 -2387.9778,-1822.49 C -2367.5437,-1806.547 -2335.0662,-1821.1641 -2317.0671,-1799.2384 C -2302.523,-1800.532 -2289.7558,-1788.2109 -2275.8369,-1797.1688 C -2277.3177,-1811.8506 -2281.5624,-1825.9179 -2270.7366,-1837.6893 C -2237.0088,-1854.7641 -2288.7687,-1866.5355 -2290.8088,-1887.8144 C -2277.6796,-1899.23 -2267.0842,-1913.8148 -2263.7278,-1930.2753 C -2267.0183,-1935.0291 -2268.9269,-1940.1386 -2270.1114,-1945.3775 C -2273.8297,-1961.9026 -2270.3418,-1979.8506 -2281.1018,-1994.9205 C -2293.4412,-2015.3263 -2261.1283,-2018.2368 -2261.3587,-2035.6997 C -2258.2985,-2054.9413 -2260.1741,-2074.7974 -2265.0769,-2093.5539 C -2268.2687,-2105.5516 -2272.678,-2117.1289 -2277.8112,-2127.8007 C -2286.1692,-2158.2638 -2256.4229,-2184.5229 -2267.7423,-2216.0856 C -2262.3129,-2222.6827 -2261.5561,-2230.9291 -2260.8322,-2239.3049 C -2260.536,-2240.0487 -2260.2399,-2240.8571 -2260.0095,-2241.6656"/>
    </g>
  </g>
</svg>